<!DOCTYPE svg PUBLIC "-//W3C//DTD SVG 1.1//EN" "http://www.w3.org/Graphics/SVG/1.1/DTD/svg11.dtd">
<!-- Uploaded to: SVG Repo, www.svgrepo.com, Transformed by: SVG Repo Mixer Tools -->
<svg width="800px" height="800px" viewBox="-2.5 -2.5 30.00 30.00" fill="none" xmlns="http://www.w3.org/2000/svg">
<g id="SVGRepo_bgCarrier" stroke-width="0">
<rect x="-2.5" y="-2.5" width="30.00" height="30.00" rx="15" fill="#1E3869" strokewidth="0"/>
</g>
<g id="SVGRepo_tracerCarrier" stroke-linecap="round" stroke-linejoin="round"/>
<g id="SVGRepo_iconCarrier"> <path d="M14.665 9.605H2.995C2.715 9.605 2.495 9.825 2.495 10.105V15.265C2.495 15.545 2.715 15.765 2.995 15.765H4.495V18.505L7.16501 15.765H14.665C14.945 15.765 15.165 15.545 15.165 15.265V10.105C15.165 9.825 14.935 9.605 14.665 9.605Z" stroke="#ffffff" stroke-miterlimit="10" stroke-linecap="round" stroke-linejoin="round"/> <path d="M15.175 12.655H15.165" stroke="#ffffff" stroke-miterlimit="10" stroke-linecap="round" stroke-linejoin="round"/> <path d="M8.83496 7.575V6.995C8.83496 6.715 9.05496 6.495 9.33496 6.495H21.005C21.275 6.495 21.505 6.715 21.505 6.995V12.325C21.505 12.505 21.365 12.655 21.185 12.655H19.505" stroke="#ffffff" stroke-miterlimit="10" stroke-linecap="round" stroke-linejoin="round"/> <path d="M8.83496 9.605V9.575" stroke="#ffffff" stroke-miterlimit="10" stroke-linecap="round" stroke-linejoin="round"/> <path d="M19.505 12.655V15.385L16.835 12.655" stroke="#ffffff" stroke-miterlimit="10" stroke-linecap="round" stroke-linejoin="round"/> </g>
</svg>