<svg width="45" height="45" viewBox="0 0 45 45" fill="none" xmlns="http://www.w3.org/2000/svg">
<path d="M45 22.5C45 10.0736 34.9264 0 22.5 0C10.0736 0 0 10.0736 0 22.5C0 34.9264 10.0736 45 22.5 45C34.9264 45 45 34.9264 45 22.5Z" fill="#1E3862"/>
<path d="M22.5006 18.7046C26.5957 18.7046 29.9154 15.3572 29.9154 11.2281C29.9154 7.09889 26.5957 3.75154 22.5006 3.75154C18.4056 3.75154 15.0859 7.09889 15.0859 11.2281C15.0859 15.3572 18.4056 18.7046 22.5006 18.7046Z" fill="white" stroke="white" stroke-width="0.961406"/>
<path d="M25.7787 22.3418H19.2219C14.8826 22.3418 11.364 25.8888 11.364 30.2658V41.2491H33.6366V30.2658C33.6366 25.8888 30.118 22.3418 25.7787 22.3418Z" fill="white" stroke="white" stroke-width="0.961406"/>
</svg>
